PathFileType	4	(X/Y/Z)	S00_P01_T02_Participants1-2_P1_0-100.trc
DataRate	CameraRate	NumFrames	NumMarkers	Units	OrigDataRate	OrigDataStartFrame	OrigNumFrames
60	60	6	21	m	60	12	100
Frame#	Time	RHip			RKnee			RAnkle			RBigToe			RSmallToe			RHeel			LHip			LKnee			LAnkle			LBigToe			LSmallToe			LHeel			Neck			Head			Nose			RShoulder			RElbow			RWrist			LShoulder			LElbow			LWrist		
		X1	Y1	Z1	X2	Y2	Z2	X3	Y3	Z3	X4	Y4	Z4	X5	Y5	Z5	X6	Y6	Z6	X7	Y7	Z7	X8	Y8	Z8	X9	Y9	Z9	X10	Y10	Z10	X11	Y11	Z11	X12	Y12	Z12	X13	Y13	Z13	X14	Y14	Z14	X15	Y15	Z15	X16	Y16	Z16	X17	Y17	Z17	X18	Y18	Z18	X19	Y19	Z19	X20	Y20	Z20	X21	Y21	Z21
13	0.2166666666666666	-1.051082316500806	0.9729804549312877	-0.9742893896251862	-0.8759103404210826	0.9623396586131484	-0.7311558755942666	-0.8855887207749689	0.9404867661716954	-0.9652146491873365	-0.7902869272592848	0.9358004536661635	-1.044928437699565	-0.8129023967415583	0.9153710415473557	-1.0389960242044332	-0.9081769727816255	0.9471483180235714	-1.0072472300836501	-1.0516266846603373	0.9735921382066444	-1.1184712156920709	-0.8780475041706378	0.9648104588117551	-1.356645828623499	-0.8897635596727009	0.9427580045113755	-1.1237748250947293	-0.7892552145541004	0.9345435300504689	-1.0577839205001194	-0.8129873263492229	0.9147505550730071	-1.0616686544914598	-0.9115818524140568	0.9494030166795857	-1.0791953546701796	-1.090159935573308	1.378858651615316	-1.0573936339514625	-1.0381373549943462	1.540414249997525	-1.0582499846239615	-0.9941705180343092	1.4446006873459962	-1.0495010678731094	-1.0967995484736335	1.3263495790670818	-0.9260588348787182	-1.0388235703499107	1.1452477876914773	-0.8509203219552375	-0.8744987467078137	1.0785530934606442	-0.9287994850483448	-1.0809280867065332	1.3310013944148282	-1.1781691255869011	-1.0444448406020062	1.1586159487866916	-1.2645326762764657	-0.9078478663661236	1.1093232226154983	-1.1277288067915858
14	0.2333333333333333	-1.0510855113645627	0.9749761154301688	-0.9742862345666721	-0.875914267502941	0.9643348525722897	-0.7311491996637824	-0.8863805639215001	0.9428372576041041	-0.9652043989607726	-0.7913350520259301	0.9382164199128794	-1.0452336981172135	-0.8139412960103702	0.9177895192122641	-1.0392579854012869	-0.9090956832896006	0.9495685872064201	-1.0071569757557792	-1.0516294869379113	0.9755876049081164	-1.1184681042493338	-0.8780491311747678	0.9668051079131516	-1.3566408889096302	-0.8897659722939341	0.944753015847561	-1.1237699566220212	-0.7892577428787971	0.9365384003873245	-1.0577776590106658	-0.8129898626201566	0.9167453723310381	-1.0616627166347496	-0.911584457599236	0.9513981537691382	-1.0791906344739972	-1.090027179717053	1.3808834582396603	-1.0573025779811815	-1.0381469414996167	1.5424058328723047	-1.0582542216391881	-0.9977947852027103	1.445736704424661	-1.052337521772869	-1.0967684080336713	1.3283501956192025	-0.9260350102586598	-1.0387001839904741	1.1467269883755742	-0.8521758025669249	-0.8737190451937848	1.0811503881291569	-0.9296136554952296	-1.0809318008866144	1.332998596937391	-1.1781626951810589	-1.0444476012420736	1.1606119889564666	-1.2645275925875816	-0.9080700858615381	1.1125170333900554	-1.1269630989984194
15	0.25	-1.051088343019541	0.9767439276382155	-0.9742834358937235	-0.8759177467115283	0.9661022506814859	-0.7311432909857372	-0.8870818076431921	0.9449196786384616	-0.9651928255012296	-0.7922640975276483	0.9403572940788675	-1.0455008665300831	-0.8148620579035073	0.9199325663909037	-1.0394868175836114	-0.9099090693342793	0.9517127757869746	-1.007074112167568	-1.0516319710141613	0.9773552452464521	-1.118465340119514	-0.8780505731687244	0.9685720231323212	-1.356636502136003	-0.8897681099917437	0.946520252301328	-1.1237656394849542	-0.7892599824461002	0.9383055116861381	-1.0577721114143184	-0.812992109169915	0.9185124366551706	-1.061657455406079	-0.9115867660407908	0.9531655017256834	-1.0791864493437013	-1.0898511394690555	1.3826910050176484	-1.0571825747215733	-1.0381554321337907	1.5441700270302614	-1.0582579623827728	-1.0010047618638411	1.4467422318833114	-1.0548511910450014	-1.096766461328874	1.3301170112415908	-0.9260325384987846	-1.0385920714840764	1.148044182920631	-0.8532903227000841	-0.8730353703723648	1.0834510444818253	-0.9303243380141621	-1.0809350984039345	1.334767774903861	-1.178156975494977	-1.0444500511240813	1.1623801370125417	-1.2645230708027186	-0.9082727049670798	1.115348582172679	-1.1262904414873622
16	0.2666666666666666	-1.0510907956911903	0.9782743928518933	-0.9742810100326632	-0.8759207591818013	0.9676323567681832	-0.7311381794435432	-0.887688750217836	0.9467227308506181	-0.9651809120645453	-0.793068848135446	0.9422112956363273	-1.0457297020613565	-0.8156595524974555	0.9217884099489057	-1.0396824789629568	-0.9106129145742127	0.9535692690920109	-1.0070001613900408	-1.0516341229148056	0.9788855615143343	-1.1184629410478655	-0.878051822143652	0.970101710977654	-1.3566326959167292	-0.8897699610977718	0.9480502185237843	-1.1237618985231037	-0.7892619212689114	0.9398353693645995	-1.0577673078748233	-0.8129940539947819	0.9200422536992178	-1.0616528995456587	-0.9115887650919036	0.9546955645618395	-1.079182823166551	-1.0897065121255027	1.3842540801844059	-1.0570838279351462	-1.0381627817845696	1.5456973554146092	-1.058261191339527	-1.0032549022562505	1.4477376191754534	-1.056613645876511	-1.0967789164901571	1.3316436379887957	-0.9260406793250027	-1.0384993779710272	1.1491897578894767	-0.8542569850123005	-0.8724488194931612	1.0854426195696396	-0.9309316411389883	-1.080937958833166	1.3362994223476168	-1.1781520058695731	-1.0444521754684255	1.1639108926209423	-1.264519142005746	-0.9084524974500637	1.1178017430794291	-1.1257123900410906
17	0.2833333333333333	-1.051092855682605	0.9795592847128736	-0.9742789712904423	-0.8759232885608407	0.9689169466784214	-0.7311338908363089	-0.888198192561914	0.9482366262055527	-0.965169550324192	-0.7937447822640247	0.9437682120325783	-1.04592004971684	-0.8163293341923802	0.9233468445806037	-1.0398449864533221	-0.9112035787058236	0.9551280062174452	-1.0069364881246834	-1.051635930498325	0.9801703282198201	-1.118460922554631	-0.8780528711405361	0.9713859496224082	-1.3566294943680064	-0.8897715154885143	0.9493346910735472	-1.1237587553366881	-0.7892635489590137	0.94111975064905	-1.0577632745392402	-0.8129956866930487	0.9213266008933165	-1.0616490739736932	-0.9115904437790263	0.9559801182814536	-1.0791797767070543	-1.0896151099727103	1.3855592691435732	-1.0570210340089665	-1.038168951400082	1.546979610511044	-1.0582638953034826	-1.0045071613605654	1.4487240431283857	-1.0575944702392694	-1.0967954653790524	1.3329240216782021	-0.9260519456818803	-1.0384222082371006	1.1501552737903469	-0.8550697988138086	-0.8719602215674859	1.0871144229575629	-0.9314358036727916	-1.0809403643496134	1.337585306624965	-1.178147820791844	-1.0444539613898285	1.165196028019913	-1.264515833449755	-0.9086065804287002	1.1198625345073239	-1.125230186960738
18	0.3	-1.0510945114664523	0.9805916959715634	-0.9742773317412907	-0.8759253211068299	0.9699491150229114	-0.7311304467637743	-0.8886074536385797	0.9494531438091862	-0.9651595197429781	-0.7942880996659274	0.9450194605541754	-1.0460718204168102	-0.8168676678930614	0.924599294304245	-1.0399743949321627	-0.9116780136244983	0.956380537923997	-1.0068842739239703	-1.051637383540527	0.9812026388435318	-1.1184592977870786	-0.8780537142990479	0.9724178356355573	-1.3566269178923112	-0.8897727646502347	0.9503667651591635	-1.1237562281291895	-0.7892648567890527	0.9421517513116345	-1.0577600333798511	-0.8129969985267241	0.9223585741801912	-1.0616459996369056	-0.9115917928726525	0.9570122576258794	-1.0791773274586007	-1.0895707825095324	1.3866011067377628	-1.0569901031598647	-1.0381739082041836	1.5480099009665795	-1.0582660633623289	-1.0050252571595577	1.4496322858473518	-1.0580000640664167	-1.096810427893646	1.3339524561109057	-0.9260622115551842	-1.038360634314335	1.150933557373695	-0.8557237199458384	-0.8715701800776142	1.088457540414832	-0.9318371368138427	-1.0809422998835807	1.3386185152124697	-1.1781444495362616	-1.0444553980040456	1.1662286347880706	-1.2645131682718602	-0.9087324651453244	1.1215192039113635	-1.1248447954173495
